<svg xmlns="http://www.w3.org/2000/svg" width="991.5" viewBox="0 0 991.5 855.75" height="855.75" version="1.0"><defs><clipPath id="a"><path d="M 0 0.0898438 L 991 0.0898438 L 991 855.410156 L 0 855.410156 Z M 0 0.0898438"/></clipPath><clipPath id="b"><path d="M 964 69 L 991 69 L 991 137 L 964 137 Z M 964 69"/></clipPath><clipPath id="c"><path d="M 973 43 L 991 43 L 991 72 L 973 72 Z M 973 43"/></clipPath><clipPath id="d"><path d="M 964 234 L 991 234 L 991 302 L 964 302 Z M 964 234"/></clipPath><clipPath id="e"><path d="M 973 208 L 991 208 L 991 237 L 973 237 Z M 973 208"/></clipPath><clipPath id="f"><path d="M 964 399 L 991 399 L 991 467 L 964 467 Z M 964 399"/></clipPath><clipPath id="g"><path d="M 973 373 L 991 373 L 991 402 L 973 402 Z M 973 373"/></clipPath><clipPath id="h"><path d="M 964 564 L 991 564 L 991 632 L 964 632 Z M 964 564"/></clipPath><clipPath id="i"><path d="M 973 538 L 991 538 L 991 567 L 973 567 Z M 973 538"/></clipPath><clipPath id="j"><path d="M 964 729 L 991 729 L 991 796 L 964 796 Z M 964 729"/></clipPath><clipPath id="k"><path d="M 973 703 L 991 703 L 991 731 L 973 731 Z M 973 703"/></clipPath><clipPath id="l"><path d="M 25 830 L 96 830 L 96 855.410156 L 25 855.410156 Z M 25 830"/></clipPath><clipPath id="m"><path d="M 0 833 L 22 833 L 22 855.410156 L 0 855.410156 Z M 0 833"/></clipPath><clipPath id="n"><path d="M 297 830 L 368 830 L 368 855.410156 L 297 855.410156 Z M 297 830"/></clipPath><clipPath id="o"><path d="M 272 833 L 294 833 L 294 855.410156 L 272 855.410156 Z M 272 833"/></clipPath><clipPath id="p"><path d="M 569 830 L 640 830 L 640 855.410156 L 569 855.410156 Z M 569 830"/></clipPath><clipPath id="q"><path d="M 544 833 L 566 833 L 566 855.410156 L 544 855.410156 Z M 544 833"/></clipPath><clipPath id="r"><path d="M 841 830 L 912 830 L 912 855.410156 L 841 855.410156 Z M 841 830"/></clipPath><clipPath id="s"><path d="M 816 833 L 838 833 L 838 855.410156 L 816 855.410156 Z M 816 833"/></clipPath></defs><g clip-path="url(#a)" fill="#FFF"><path d="M 0 0.0898438 L 991.5 0.0898438 L 991.5 863.339844 L 0 863.339844 Z M 0 0.0898438"/><path d="M 0 0.0898438 L 991.5 0.0898438 L 991.5 855.839844 L 0 855.839844 Z M 0 0.0898438"/><path d="M 0 0.0898438 L 991.5 0.0898438 L 991.5 855.839844 L 0 855.839844 Z M 0 0.0898438"/></g><path fill="#D9D9D9" d="M 88.613281 25.386719 C 79.066406 16.925781 61.996094 0.484375 43.589844 8.554688 C 25.015625 16.703125 25.992188 40.210938 25.761719 52.957031 C 25.542969 65.027344 36.589844 76.339844 46.78125 71.867188 C 59.742188 66.183594 58.363281 58.019531 64.253906 55.300781 C 70.25 52.804688 75.320312 59.347656 88.269531 53.667969 C 98.472656 49.199219 97.628906 33.410156 88.613281 25.386719"/><path fill="#D9D9D9" d="M 20.609375 20.855469 C 17.875 14.628906 8.730469 7.496094 4.78125 9.226562 C 0.355469 11.175781 -0.0195312 22.480469 2.714844 28.707031 C 4.964844 33.832031 11.429688 38.328125 16.640625 36.269531 L 16.640625 36.28125 L 16.6875 36.25 L 16.746094 36.234375 L 16.734375 36.234375 C 21.785156 33.773438 22.855469 25.980469 20.609375 20.855469"/><path fill="#D9D9D9" d="M 156.414062 88.992188 C 165.949219 80.519531 183.027344 64.082031 201.4375 72.152344 C 220.007812 80.300781 219.035156 103.808594 219.261719 116.554688 C 219.484375 128.625 208.4375 139.9375 198.234375 135.460938 C 185.277344 129.78125 186.664062 121.613281 180.773438 118.898438 C 174.777344 116.402344 169.707031 122.953125 156.75 117.273438 C 146.546875 112.796875 147.386719 97.007812 156.414062 88.992188"/><path fill="#D9D9D9" d="M 158.644531 55.609375 C 161.378906 49.371094 170.519531 42.238281 174.46875 43.980469 C 178.90625 45.921875 179.269531 57.222656 176.535156 63.449219 C 174.289062 68.574219 167.832031 73.070312 162.609375 71.023438 L 162.609375 71.035156 L 162.5625 71.003906 L 162.515625 70.984375 L 162.515625 70.976562 C 157.476562 68.527344 156.40625 60.734375 158.644531 55.609375"/><path fill="#D9D9D9" d="M 224.417969 84.453125 C 227.152344 78.226562 236.285156 71.089844 240.246094 72.820312 C 244.671875 74.761719 245.046875 86.066406 242.308594 92.304688 C 240.0625 97.429688 233.597656 101.914062 228.386719 99.867188 L 228.375 99.875 L 228.328125 99.847656 L 228.28125 99.828125 C 223.242188 97.382812 222.171875 89.578125 224.417969 84.453125"/><path fill="#D9D9D9" d="M 186.203125 47.308594 C 188.9375 41.070312 198.082031 33.945312 202.03125 35.679688 C 206.46875 37.621094 206.832031 48.921875 204.097656 55.160156 C 201.847656 60.273438 195.382812 64.769531 190.171875 62.722656 L 190.125 62.703125 L 190.066406 62.683594 L 190.078125 62.675781 C 185.035156 60.226562 183.957031 52.421875 186.203125 47.308594"/><path fill="#D9D9D9" d="M 211.851562 58.554688 C 214.585938 52.316406 223.730469 45.195312 227.6875 46.925781 C 232.117188 48.867188 232.480469 60.167969 229.746094 66.40625 C 227.507812 71.523438 221.042969 76.015625 215.820312 73.96875 L 215.773438 73.949219 L 215.714844 73.929688 L 215.726562 73.929688 C 210.683594 71.472656 209.613281 63.679688 211.851562 58.554688"/><path fill="#D9D9D9" d="M 360.445312 25.386719 C 350.910156 16.925781 333.839844 0.484375 315.429688 8.554688 C 296.859375 16.703125 297.824219 40.210938 297.59375 52.957031 C 297.382812 65.027344 308.421875 76.339844 318.625 71.867188 C 331.582031 66.183594 330.203125 58.019531 336.097656 55.300781 C 342.082031 52.804688 347.160156 59.347656 360.109375 53.667969 C 370.3125 49.199219 369.472656 33.410156 360.445312 25.386719"/><path fill="#D9D9D9" d="M 292.441406 20.855469 C 289.714844 14.628906 280.574219 7.496094 276.613281 9.226562 C 272.183594 11.175781 271.820312 22.480469 274.546875 28.707031 C 276.796875 33.832031 283.257812 38.328125 288.480469 36.269531 L 288.480469 36.28125 L 288.527344 36.25 L 288.578125 36.234375 C 293.617188 33.773438 294.6875 25.980469 292.441406 20.855469"/><path fill="#D9D9D9" d="M 428.253906 88.992188 C 437.789062 80.519531 454.859375 64.082031 473.269531 72.152344 C 491.839844 80.300781 490.875 103.808594 491.105469 116.554688 C 491.316406 128.625 480.277344 139.9375 470.074219 135.460938 C 457.117188 129.78125 458.496094 121.613281 452.601562 118.898438 C 446.617188 116.402344 441.539062 122.953125 428.589844 117.273438 C 418.386719 112.796875 419.226562 97.007812 428.253906 88.992188"/><path fill="#D9D9D9" d="M 430.484375 55.609375 C 433.21875 49.371094 442.351562 42.238281 446.3125 43.980469 C 450.738281 45.921875 451.113281 57.222656 448.375 63.449219 C 446.128906 68.574219 439.664062 73.070312 434.453125 71.023438 L 434.453125 71.035156 L 434.394531 71.003906 L 434.347656 70.984375 L 434.355469 70.976562 C 429.308594 68.527344 428.238281 60.734375 430.484375 55.609375"/><path fill="#D9D9D9" d="M 496.25 84.453125 C 498.984375 78.226562 508.125 71.089844 512.085938 72.820312 C 516.515625 74.761719 516.878906 86.066406 514.152344 92.304688 C 511.90625 97.429688 505.441406 101.914062 500.21875 99.867188 L 500.21875 99.875 L 500.171875 99.847656 L 500.113281 99.828125 L 500.121094 99.828125 C 495.082031 97.382812 494.003906 89.578125 496.25 84.453125"/><path fill="#D9D9D9" d="M 458.042969 47.308594 C 460.78125 41.070312 469.914062 33.945312 473.871094 35.679688 C 478.300781 37.621094 478.671875 48.921875 475.9375 55.160156 C 473.691406 60.273438 467.226562 64.769531 462.011719 62.722656 L 461.957031 62.703125 L 461.910156 62.683594 L 461.910156 62.675781 C 456.867188 60.226562 455.796875 52.421875 458.042969 47.308594"/><path fill="#D9D9D9" d="M 483.691406 58.554688 C 486.429688 52.316406 495.570312 45.195312 499.519531 46.925781 C 503.957031 48.867188 504.320312 60.167969 501.585938 66.40625 C 499.339844 71.523438 492.875 76.015625 487.660156 73.96875 L 487.613281 73.949219 L 487.554688 73.929688 L 487.566406 73.929688 C 482.515625 71.472656 481.445312 63.679688 483.691406 58.554688"/><path fill="#D9D9D9" d="M 632.285156 25.386719 C 622.75 16.925781 605.671875 0.484375 587.261719 8.554688 C 568.691406 16.703125 569.664062 40.210938 569.4375 52.957031 C 569.214844 65.027344 580.261719 76.339844 590.464844 71.867188 C 603.421875 66.183594 602.035156 58.019531 607.925781 55.300781 C 613.921875 52.804688 618.992188 59.347656 631.949219 53.667969 C 642.152344 49.199219 641.3125 33.410156 632.285156 25.386719"/><path fill="#D9D9D9" d="M 564.28125 20.855469 C 561.546875 14.628906 552.414062 7.496094 548.453125 9.226562 C 544.027344 11.175781 543.652344 22.480469 546.390625 28.707031 C 548.636719 33.832031 555.101562 38.328125 560.3125 36.269531 L 560.3125 36.28125 L 560.371094 36.25 L 560.417969 36.234375 C 565.457031 33.773438 566.527344 25.980469 564.28125 20.855469"/><path fill="#D9D9D9" d="M 700.097656 88.992188 C 709.632812 80.519531 726.703125 64.082031 745.109375 72.152344 C 763.683594 80.300781 762.707031 103.808594 762.9375 116.554688 C 763.15625 128.625 752.109375 139.9375 741.90625 135.460938 C 728.957031 129.78125 730.335938 121.613281 724.445312 118.898438 C 718.449219 116.402344 713.378906 122.953125 700.421875 117.273438 C 690.226562 112.796875 691.058594 97.007812 700.097656 88.992188"/><path fill="#D9D9D9" d="M 702.324219 55.609375 C 705.050781 49.371094 714.191406 42.238281 718.152344 43.980469 C 722.578125 45.921875 722.941406 57.222656 720.21875 63.449219 C 717.96875 68.574219 711.503906 73.070312 706.285156 71.023438 L 706.285156 71.035156 L 706.238281 71.003906 L 706.1875 70.984375 L 706.1875 70.976562 C 701.148438 68.527344 700.078125 60.734375 702.324219 55.609375"/><path fill="#D9D9D9" d="M 768.089844 84.453125 C 770.824219 78.226562 779.96875 71.089844 783.917969 72.820312 C 788.355469 74.761719 788.71875 86.066406 785.984375 92.304688 C 783.734375 97.429688 777.269531 101.914062 772.058594 99.867188 L 772.058594 99.875 L 772.011719 99.847656 L 771.953125 99.828125 C 766.914062 97.382812 765.84375 89.578125 768.089844 84.453125"/><path fill="#D9D9D9" d="M 729.886719 47.308594 C 732.613281 41.070312 741.753906 33.945312 745.714844 35.679688 C 750.140625 37.621094 750.503906 48.921875 747.769531 55.160156 C 745.53125 60.273438 739.066406 64.769531 733.84375 62.722656 L 733.75 62.683594 L 733.75 62.675781 C 728.710938 60.226562 727.640625 52.421875 729.886719 47.308594"/><path fill="#D9D9D9" d="M 755.535156 58.554688 C 758.269531 52.316406 767.402344 45.195312 771.363281 46.925781 C 775.789062 48.867188 776.160156 60.167969 773.425781 66.40625 C 771.179688 71.523438 764.714844 76.015625 759.492188 73.96875 L 759.398438 73.929688 C 754.359375 71.472656 753.285156 63.679688 755.535156 58.554688"/><path fill="#D9D9D9" d="M 904.117188 25.386719 C 894.582031 16.925781 877.511719 0.484375 859.101562 8.554688 C 840.53125 16.703125 841.507812 40.210938 841.277344 52.957031 C 841.058594 65.027344 852.101562 76.339844 862.304688 71.867188 C 875.253906 66.183594 873.878906 58.019531 879.769531 55.300781 C 885.765625 52.804688 890.832031 59.347656 903.792969 53.667969 C 913.984375 49.199219 913.144531 33.410156 904.117188 25.386719"/><path fill="#D9D9D9" d="M 836.121094 20.855469 C 833.386719 14.628906 824.246094 7.496094 820.296875 9.226562 C 815.867188 11.175781 815.496094 22.480469 818.230469 28.707031 C 820.476562 33.832031 826.933594 38.328125 832.152344 36.269531 L 832.152344 36.28125 L 832.203125 36.25 L 832.257812 36.234375 L 832.25 36.234375 C 837.300781 33.773438 838.371094 25.980469 836.121094 20.855469"/><g clip-path="url(#b)"><path fill="#D9D9D9" d="M 971.929688 88.992188 C 981.464844 80.519531 998.535156 64.082031 1016.953125 72.152344 C 1035.523438 80.300781 1034.546875 103.808594 1034.777344 116.554688 C 1034.996094 128.625 1023.953125 139.9375 1013.75 135.460938 C 1000.800781 129.78125 1002.175781 121.613281 996.285156 118.898438 C 990.289062 116.402344 985.222656 122.953125 972.261719 117.273438 C 962.058594 112.796875 962.902344 97.007812 971.929688 88.992188"/></g><g clip-path="url(#c)"><path fill="#D9D9D9" d="M 974.15625 55.609375 C 976.890625 49.371094 986.035156 42.238281 989.984375 43.980469 C 994.421875 45.921875 994.785156 57.222656 992.050781 63.449219 C 989.800781 68.574219 983.335938 73.070312 978.125 71.023438 L 978.125 71.035156 L 978.078125 71.003906 L 978.019531 70.984375 L 978.03125 70.976562 C 972.988281 68.527344 971.910156 60.734375 974.15625 55.609375"/></g><path fill="#D9D9D9" d="M 88.613281 190.242188 C 79.066406 181.769531 61.996094 165.328125 43.589844 173.398438 C 25.015625 181.546875 25.992188 205.054688 25.761719 217.804688 C 25.542969 229.871094 36.589844 241.183594 46.78125 236.710938 C 59.742188 231.027344 58.363281 222.863281 64.253906 220.144531 C 70.25 217.660156 75.320312 224.199219 88.269531 218.519531 C 98.472656 214.042969 97.628906 198.253906 88.613281 190.242188"/><path fill="#D9D9D9" d="M 86.375 156.855469 C 83.640625 150.628906 74.507812 143.496094 70.546875 145.226562 C 66.121094 147.167969 65.746094 158.472656 68.480469 164.707031 C 70.730469 169.824219 77.195312 174.316406 82.40625 172.273438 L 82.414062 172.28125 L 82.460938 172.253906 L 82.511719 172.234375 C 87.550781 169.785156 88.621094 161.980469 86.375 156.855469"/><path fill="#D9D9D9" d="M 20.609375 185.707031 C 17.875 179.472656 8.730469 172.339844 4.78125 174.078125 C 0.355469 176.019531 -0.0195312 187.324219 2.714844 193.550781 C 4.964844 198.675781 11.429688 203.171875 16.640625 201.125 L 16.6875 201.105469 L 16.746094 201.078125 L 16.734375 201.078125 C 21.785156 198.628906 22.855469 190.824219 20.609375 185.707031"/><path fill="#D9D9D9" d="M 58.824219 148.554688 C 56.085938 142.320312 46.945312 135.195312 42.984375 136.925781 C 38.558594 138.867188 38.195312 150.171875 40.929688 156.40625 C 43.167969 161.523438 49.632812 166.015625 54.855469 163.972656 L 54.855469 163.980469 L 54.902344 163.953125 L 54.949219 163.933594 L 54.949219 163.921875 C 59.988281 161.476562 61.058594 153.679688 58.824219 148.554688"/><path fill="#D9D9D9" d="M 33.164062 159.8125 C 30.429688 153.574219 21.296875 146.441406 17.339844 148.171875 C 12.910156 150.121094 12.539062 161.417969 15.273438 167.652344 C 17.519531 172.777344 23.984375 177.265625 29.195312 175.21875 L 29.195312 175.226562 L 29.253906 175.199219 L 29.300781 175.179688 C 34.339844 172.722656 35.414062 164.925781 33.164062 159.8125"/><path fill="#D9D9D9" d="M 156.414062 253.835938 C 165.949219 245.375 183.027344 228.925781 201.4375 236.996094 C 220.007812 245.144531 219.035156 268.652344 219.261719 281.398438 C 219.484375 293.46875 208.4375 304.78125 198.234375 300.304688 C 185.277344 294.625 186.664062 286.46875 180.773438 283.742188 C 174.777344 281.246094 169.707031 287.796875 156.75 282.117188 C 146.546875 277.640625 147.386719 261.851562 156.414062 253.835938"/><path fill="#D9D9D9" d="M 158.644531 220.453125 C 161.378906 214.226562 170.519531 207.09375 174.46875 208.824219 C 178.90625 210.765625 179.269531 222.066406 176.535156 228.304688 C 174.289062 233.429688 167.832031 237.925781 162.609375 235.867188 L 162.609375 235.878906 L 162.5625 235.847656 L 162.515625 235.828125 L 162.515625 235.820312 C 157.476562 233.371094 156.40625 225.578125 158.644531 220.453125"/><path fill="#D9D9D9" d="M 224.417969 249.304688 C 227.152344 243.070312 236.285156 235.933594 240.246094 237.667969 C 244.671875 239.617188 245.046875 250.921875 242.308594 257.148438 C 240.0625 262.273438 233.597656 266.765625 228.386719 264.710938 L 228.375 264.722656 L 228.328125 264.691406 L 228.28125 264.683594 L 228.28125 264.671875 C 223.242188 262.226562 222.171875 254.421875 224.417969 249.304688"/><path fill="#D9D9D9" d="M 186.203125 212.152344 C 188.9375 205.925781 198.082031 198.792969 202.03125 200.523438 C 206.46875 202.464844 206.832031 213.765625 204.097656 220.003906 C 201.847656 225.117188 195.382812 229.613281 190.171875 227.566406 L 190.125 227.546875 L 190.066406 227.527344 L 190.078125 227.519531 C 185.035156 225.070312 183.957031 217.277344 186.203125 212.152344"/><path fill="#D9D9D9" d="M 211.851562 223.40625 C 214.585938 217.171875 223.730469 210.039062 227.6875 211.769531 C 232.117188 213.71875 232.480469 225.015625 229.746094 231.25 C 227.507812 236.375 221.042969 240.859375 215.820312 238.8125 L 215.820312 238.824219 L 215.773438 238.792969 L 215.714844 238.777344 L 215.726562 238.777344 C 210.683594 236.328125 209.613281 228.523438 211.851562 223.40625"/><path fill="#D9D9D9" d="M 360.445312 190.242188 C 350.910156 181.769531 333.839844 165.328125 315.429688 173.398438 C 296.859375 181.546875 297.824219 205.054688 297.59375 217.804688 C 297.382812 229.871094 308.421875 241.183594 318.625 236.710938 C 331.582031 231.027344 330.203125 222.863281 336.097656 220.144531 C 342.082031 217.660156 347.160156 224.199219 360.109375 218.519531 C 370.3125 214.042969 369.472656 198.253906 360.445312 190.242188"/><path fill="#D9D9D9" d="M 358.214844 156.855469 C 355.480469 150.628906 346.347656 143.496094 342.386719 145.226562 C 337.960938 147.167969 337.585938 158.472656 340.324219 164.707031 C 342.570312 169.824219 349.035156 174.316406 354.246094 172.273438 L 354.246094 172.28125 L 354.304688 172.253906 L 354.351562 172.234375 L 354.34375 172.234375 C 359.390625 169.785156 360.460938 161.980469 358.214844 156.855469"/><path fill="#D9D9D9" d="M 292.441406 185.707031 C 289.714844 179.472656 280.574219 172.339844 276.613281 174.078125 C 272.183594 176.019531 271.820312 187.324219 274.546875 193.550781 C 276.796875 198.675781 283.257812 203.171875 288.480469 201.125 L 288.527344 201.105469 L 288.578125 201.078125 C 293.617188 198.628906 294.6875 190.824219 292.441406 185.707031"/><path fill="#D9D9D9" d="M 330.65625 148.554688 C 327.917969 142.320312 318.785156 135.195312 314.828125 136.925781 C 310.398438 138.867188 310.027344 150.171875 312.761719 156.40625 C 315.007812 161.523438 321.472656 166.015625 326.6875 163.972656 L 326.6875 163.980469 L 326.742188 163.953125 L 326.789062 163.933594 L 326.789062 163.921875 C 331.832031 161.476562 332.902344 153.679688 330.65625 148.554688"/><path fill="#D9D9D9" d="M 305.007812 159.8125 C 302.269531 153.574219 293.128906 146.441406 289.179688 148.171875 C 284.75 150.121094 284.378906 161.417969 287.113281 167.652344 C 289.359375 172.777344 295.824219 177.265625 301.039062 175.21875 L 301.039062 175.226562 L 301.085938 175.199219 L 301.144531 175.179688 L 301.132812 175.179688 C 306.183594 172.722656 307.253906 164.925781 305.007812 159.8125"/><path fill="#D9D9D9" d="M 428.253906 253.835938 C 437.789062 245.375 454.859375 228.925781 473.269531 236.996094 C 491.839844 245.144531 490.875 268.652344 491.105469 281.398438 C 491.316406 293.46875 480.277344 304.78125 470.074219 300.304688 C 457.117188 294.625 458.496094 286.46875 452.601562 283.742188 C 446.617188 281.246094 441.539062 287.796875 428.589844 282.117188 C 418.386719 277.640625 419.226562 261.851562 428.253906 253.835938"/><path fill="#D9D9D9" d="M 430.484375 220.453125 C 433.21875 214.226562 442.351562 207.09375 446.3125 208.824219 C 450.738281 210.765625 451.113281 222.066406 448.375 228.304688 C 446.128906 233.429688 439.664062 237.925781 434.453125 235.867188 L 434.453125 235.878906 L 434.394531 235.847656 L 434.347656 235.828125 L 434.355469 235.820312 C 429.308594 233.371094 428.238281 225.578125 430.484375 220.453125"/><path fill="#D9D9D9" d="M 496.25 249.304688 C 498.984375 243.070312 508.125 235.933594 512.085938 237.667969 C 516.515625 239.617188 516.878906 250.921875 514.152344 257.148438 C 511.90625 262.273438 505.441406 266.765625 500.21875 264.710938 L 500.21875 264.722656 L 500.171875 264.691406 L 500.113281 264.683594 L 500.121094 264.671875 C 495.082031 262.226562 494.003906 254.421875 496.25 249.304688"/><path fill="#D9D9D9" d="M 458.042969 212.152344 C 460.78125 205.925781 469.914062 198.792969 473.871094 200.523438 C 478.300781 202.464844 478.671875 213.765625 475.9375 220.003906 C 473.691406 225.117188 467.226562 229.613281 462.011719 227.566406 L 461.957031 227.546875 L 461.910156 227.527344 L 461.910156 227.519531 C 456.867188 225.070312 455.796875 217.277344 458.042969 212.152344"/><path fill="#D9D9D9" d="M 483.691406 223.40625 C 486.429688 217.171875 495.570312 210.039062 499.519531 211.769531 C 503.957031 213.71875 504.320312 225.015625 501.585938 231.25 C 499.339844 236.375 492.875 240.859375 487.660156 238.8125 L 487.660156 238.824219 L 487.613281 238.792969 L 487.554688 238.777344 L 487.566406 238.777344 C 482.515625 236.328125 481.445312 228.523438 483.691406 223.40625"/><path fill="#D9D9D9" d="M 632.285156 190.242188 C 622.75 181.769531 605.671875 165.328125 587.261719 173.398438 C 568.691406 181.546875 569.664062 205.054688 569.4375 217.804688 C 569.214844 229.871094 580.261719 241.183594 590.464844 236.710938 C 603.421875 231.027344 602.035156 222.863281 607.925781 220.144531 C 613.921875 217.660156 618.992188 224.199219 631.949219 218.519531 C 642.152344 214.042969 641.3125 198.253906 632.285156 190.242188"/><path fill="#D9D9D9" d="M 630.046875 156.855469 C 627.320312 150.628906 618.179688 143.496094 614.230469 145.226562 C 609.792969 147.167969 609.429688 158.472656 612.164062 164.707031 C 614.410156 169.824219 620.867188 174.316406 626.089844 172.273438 L 626.089844 172.28125 L 626.136719 172.253906 L 626.183594 172.234375 C 631.234375 169.785156 632.292969 161.980469 630.046875 156.855469"/><path fill="#D9D9D9" d="M 564.28125 185.707031 C 561.546875 179.472656 552.414062 172.339844 548.453125 174.078125 C 544.027344 176.019531 543.652344 187.324219 546.390625 193.550781 C 548.636719 198.675781 555.101562 203.171875 560.3125 201.125 L 560.371094 201.105469 L 560.417969 201.078125 C 565.457031 198.628906 566.527344 190.824219 564.28125 185.707031"/><path fill="#D9D9D9" d="M 602.496094 148.554688 C 599.761719 142.320312 590.617188 135.195312 586.667969 136.925781 C 582.230469 138.867188 581.867188 150.171875 584.601562 156.40625 C 586.851562 161.523438 593.316406 166.015625 598.527344 163.972656 L 598.527344 163.980469 L 598.574219 163.953125 L 598.632812 163.933594 L 598.621094 163.921875 C 603.664062 161.476562 604.742188 153.679688 602.496094 148.554688"/><path fill="#D9D9D9" d="M 576.835938 159.8125 C 574.113281 153.574219 564.96875 146.441406 561.011719 148.171875 C 556.582031 150.121094 556.21875 161.417969 558.945312 167.652344 C 561.191406 172.777344 567.65625 177.265625 572.878906 175.21875 L 572.878906 175.226562 L 572.925781 175.199219 L 572.972656 175.179688 C 578.015625 172.722656 579.085938 164.925781 576.835938 159.8125"/><path fill="#D9D9D9" d="M 700.097656 253.835938 C 709.632812 245.375 726.703125 228.925781 745.109375 236.996094 C 763.683594 245.144531 762.707031 268.652344 762.9375 281.398438 C 763.15625 293.46875 752.109375 304.78125 741.90625 300.304688 C 728.957031 294.625 730.335938 286.46875 724.445312 283.742188 C 718.449219 281.246094 713.378906 287.796875 700.421875 282.117188 C 690.226562 277.640625 691.058594 261.851562 700.097656 253.835938"/><path fill="#D9D9D9" d="M 702.324219 220.453125 C 705.050781 214.226562 714.191406 207.09375 718.152344 208.824219 C 722.578125 210.765625 722.941406 222.066406 720.21875 228.304688 C 717.96875 233.429688 711.503906 237.925781 706.285156 235.867188 L 706.285156 235.878906 L 706.238281 235.847656 L 706.1875 235.828125 L 706.1875 235.820312 C 701.148438 233.371094 700.078125 225.578125 702.324219 220.453125"/><path fill="#D9D9D9" d="M 768.089844 249.304688 C 770.824219 243.070312 779.96875 235.933594 783.917969 237.667969 C 788.355469 239.617188 788.71875 250.921875 785.984375 257.148438 C 783.734375 262.273438 777.269531 266.765625 772.058594 264.710938 L 772.058594 264.722656 L 772.011719 264.691406 L 771.953125 264.683594 L 771.953125 264.671875 C 766.914062 262.226562 765.84375 254.421875 768.089844 249.304688"/><path fill="#D9D9D9" d="M 729.886719 212.152344 C 732.613281 205.925781 741.753906 198.792969 745.714844 200.523438 C 750.140625 202.464844 750.503906 213.765625 747.769531 220.003906 C 745.53125 225.117188 739.066406 229.613281 733.84375 227.566406 L 733.75 227.527344 L 733.75 227.519531 C 728.710938 225.070312 727.640625 217.277344 729.886719 212.152344"/><path fill="#D9D9D9" d="M 755.535156 223.40625 C 758.269531 217.171875 767.402344 210.039062 771.363281 211.769531 C 775.789062 213.71875 776.160156 225.015625 773.425781 231.25 C 771.179688 236.375 764.714844 240.859375 759.492188 238.8125 L 759.492188 238.824219 L 759.445312 238.792969 L 759.398438 238.777344 C 754.359375 236.328125 753.285156 228.523438 755.535156 223.40625"/><path fill="#D9D9D9" d="M 904.117188 190.242188 C 894.582031 181.769531 877.511719 165.328125 859.101562 173.398438 C 840.53125 181.546875 841.507812 205.054688 841.277344 217.804688 C 841.058594 229.871094 852.101562 241.183594 862.304688 236.710938 C 875.253906 231.027344 873.878906 222.863281 879.769531 220.144531 C 885.765625 217.660156 890.832031 224.199219 903.792969 218.519531 C 913.984375 214.042969 913.144531 198.253906 904.117188 190.242188"/><path fill="#D9D9D9" d="M 901.886719 156.855469 C 899.152344 150.628906 890.019531 143.496094 886.0625 145.226562 C 881.632812 147.167969 881.269531 158.472656 883.996094 164.707031 C 886.242188 169.824219 892.707031 174.316406 897.917969 172.273438 L 897.929688 172.28125 L 897.976562 172.253906 L 898.023438 172.234375 C 903.066406 169.785156 904.136719 161.980469 901.886719 156.855469"/><path fill="#D9D9D9" d="M 836.121094 185.707031 C 833.386719 179.472656 824.246094 172.339844 820.296875 174.078125 C 815.867188 176.019531 815.496094 187.324219 818.230469 193.550781 C 820.476562 198.675781 826.933594 203.171875 832.152344 201.125 L 832.203125 201.105469 L 832.257812 201.078125 L 832.25 201.078125 C 837.300781 198.628906 838.371094 190.824219 836.121094 185.707031"/><path fill="#D9D9D9" d="M 874.328125 148.554688 C 871.59375 142.320312 862.460938 135.195312 858.5 136.925781 C 854.074219 138.867188 853.710938 150.171875 856.433594 156.40625 C 858.683594 161.523438 865.148438 166.015625 870.367188 163.972656 L 870.367188 163.980469 L 870.417969 163.953125 L 870.464844 163.933594 L 870.464844 163.921875 C 875.503906 161.476562 876.574219 153.679688 874.328125 148.554688"/><path fill="#D9D9D9" d="M 848.679688 159.8125 C 845.945312 153.574219 836.8125 146.441406 832.851562 148.171875 C 828.425781 150.121094 828.050781 161.417969 830.785156 167.652344 C 833.035156 172.777344 839.5 177.265625 844.710938 175.21875 L 844.710938 175.226562 L 844.769531 175.199219 L 844.816406 175.179688 C 849.855469 172.722656 850.925781 164.925781 848.679688 159.8125"/><g clip-path="url(#d)"><path fill="#D9D9D9" d="M 971.929688 253.835938 C 981.464844 245.375 998.535156 228.925781 1016.953125 236.996094 C 1035.523438 245.144531 1034.546875 268.652344 1034.777344 281.398438 C 1034.996094 293.46875 1023.953125 304.78125 1013.75 300.304688 C 1000.800781 294.625 1002.175781 286.46875 996.285156 283.742188 C 990.289062 281.246094 985.222656 287.796875 972.261719 282.117188 C 962.058594 277.640625 962.902344 261.851562 971.929688 253.835938"/></g><g clip-path="url(#e)"><path fill="#D9D9D9" d="M 974.15625 220.453125 C 976.890625 214.226562 986.035156 207.09375 989.984375 208.824219 C 994.421875 210.765625 994.785156 222.066406 992.050781 228.304688 C 989.800781 233.429688 983.335938 237.925781 978.125 235.867188 L 978.125 235.878906 L 978.078125 235.847656 L 978.019531 235.828125 L 978.03125 235.820312 C 972.988281 233.371094 971.910156 225.578125 974.15625 220.453125"/></g><path fill="#D9D9D9" d="M 88.613281 355.085938 C 79.066406 346.621094 61.996094 330.171875 43.589844 338.246094 C 25.015625 346.390625 25.992188 369.898438 25.761719 382.648438 C 25.542969 394.726562 36.589844 406.039062 46.78125 401.5625 C 59.742188 395.882812 58.363281 387.714844 64.253906 384.988281 C 70.25 382.503906 75.320312 389.046875 88.269531 383.363281 C 98.472656 378.886719 97.628906 363.097656 88.613281 355.085938"/><path fill="#D9D9D9" d="M 86.375 321.710938 C 83.640625 315.472656 74.507812 308.339844 70.546875 310.070312 C 66.121094 312.019531 65.746094 323.324219 68.480469 329.550781 C 70.730469 334.675781 77.195312 339.171875 82.40625 337.117188 L 82.414062 337.125 L 82.511719 337.085938 L 82.511719 337.078125 C 87.550781 334.628906 88.621094 326.824219 86.375 321.710938"/><path fill="#D9D9D9" d="M 20.609375 350.550781 C 17.875 344.316406 8.730469 337.191406 4.78125 338.921875 C 0.355469 340.863281 -0.0195312 352.167969 2.714844 358.402344 C 4.964844 363.519531 11.429688 368.015625 16.640625 365.96875 L 16.6875 365.949219 L 16.746094 365.929688 L 16.734375 365.921875 C 21.785156 363.472656 22.855469 355.679688 20.609375 350.550781"/><path fill="#D9D9D9" d="M 58.824219 313.40625 C 56.085938 307.171875 46.945312 300.039062 42.984375 301.769531 C 38.558594 303.71875 38.195312 315.015625 40.929688 321.25 C 43.167969 326.375 49.632812 330.871094 54.855469 328.816406 L 54.855469 328.824219 L 54.902344 328.796875 L 54.949219 328.777344 L 54.949219 328.765625 C 59.988281 326.320312 61.058594 318.523438 58.824219 313.40625"/><path fill="#D9D9D9" d="M 33.164062 324.65625 C 30.429688 318.417969 21.296875 311.285156 17.339844 313.027344 C 12.910156 314.96875 12.539062 326.269531 15.273438 332.507812 C 17.519531 337.621094 23.984375 342.117188 29.195312 340.070312 L 29.253906 340.050781 L 29.300781 340.03125 L 29.300781 340.023438 C 34.339844 337.574219 35.414062 329.769531 33.164062 324.65625"/><path fill="#D9D9D9" d="M 156.414062 418.683594 C 165.949219 410.21875 183.027344 393.769531 201.4375 401.851562 C 220.007812 409.988281 219.035156 433.496094 219.261719 446.242188 C 219.484375 458.3125 208.4375 469.636719 198.234375 465.152344 C 185.277344 459.46875 186.664062 451.3125 180.773438 448.585938 C 174.777344 446.101562 169.707031 452.640625 156.75 446.960938 C 146.546875 442.484375 147.386719 426.695312 156.414062 418.683594"/><path fill="#D9D9D9" d="M 158.644531 385.296875 C 161.378906 379.070312 170.519531 371.9375 174.46875 373.667969 C 178.90625 375.609375 179.269531 386.914062 176.535156 393.148438 C 174.289062 398.273438 167.832031 402.769531 162.609375 400.710938 L 162.609375 400.722656 L 162.5625 400.691406 L 162.515625 400.675781 C 157.476562 398.226562 156.40625 390.421875 158.644531 385.296875"/><path fill="#D9D9D9" d="M 224.417969 414.148438 C 227.152344 407.914062 236.285156 400.777344 240.246094 402.519531 C 244.671875 404.460938 245.046875 415.765625 242.308594 421.992188 C 240.0625 427.117188 233.597656 431.613281 228.386719 429.566406 L 228.375 429.566406 L 228.28125 429.527344 L 228.28125 429.515625 C 223.242188 427.070312 222.171875 419.265625 224.417969 414.148438"/><path fill="#D9D9D9" d="M 186.203125 377.003906 C 188.9375 370.769531 198.082031 363.636719 202.03125 365.367188 C 206.46875 367.316406 206.832031 378.609375 204.097656 384.847656 C 201.847656 389.964844 195.382812 394.457031 190.171875 392.410156 L 190.171875 392.421875 L 190.125 392.390625 L 190.066406 392.371094 L 190.078125 392.371094 C 185.035156 389.925781 183.957031 382.121094 186.203125 377.003906"/><path fill="#D9D9D9" d="M 211.851562 388.25 C 214.585938 382.015625 223.730469 374.882812 227.6875 376.621094 C 232.117188 378.5625 232.480469 389.867188 229.746094 396.09375 C 227.507812 401.21875 221.042969 405.714844 215.820312 403.65625 L 215.820312 403.667969 L 215.773438 403.640625 L 215.714844 403.628906 L 215.726562 403.621094 C 210.683594 401.171875 209.613281 393.367188 211.851562 388.25"/><path fill="#D9D9D9" d="M 360.445312 355.085938 C 350.910156 346.621094 333.839844 330.171875 315.429688 338.246094 C 296.859375 346.390625 297.824219 369.898438 297.59375 382.648438 C 297.382812 394.726562 308.421875 406.039062 318.625 401.5625 C 331.582031 395.882812 330.203125 387.714844 336.097656 384.988281 C 342.082031 382.503906 347.160156 389.046875 360.109375 383.363281 C 370.3125 378.886719 369.472656 363.097656 360.445312 355.085938"/><path fill="#D9D9D9" d="M 358.214844 321.710938 C 355.480469 315.472656 346.347656 308.339844 342.386719 310.070312 C 337.960938 312.019531 337.585938 323.324219 340.324219 329.550781 C 342.570312 334.675781 349.035156 339.171875 354.246094 337.117188 L 354.246094 337.125 L 354.304688 337.105469 L 354.351562 337.085938 L 354.34375 337.078125 C 359.390625 334.628906 360.460938 326.824219 358.214844 321.710938"/><path fill="#D9D9D9" d="M 292.441406 350.550781 C 289.714844 344.316406 280.574219 337.191406 276.613281 338.921875 C 272.183594 340.863281 271.820312 352.167969 274.546875 358.402344 C 276.796875 363.519531 283.257812 368.015625 288.480469 365.96875 L 288.578125 365.929688 L 288.578125 365.921875 C 293.617188 363.472656 294.6875 355.679688 292.441406 350.550781"/><path fill="#D9D9D9" d="M 330.65625 313.40625 C 327.917969 307.171875 318.785156 300.039062 314.828125 301.769531 C 310.398438 303.71875 310.027344 315.015625 312.761719 321.25 C 315.007812 326.375 321.472656 330.871094 326.6875 328.816406 L 326.6875 328.824219 L 326.742188 328.796875 L 326.789062 328.777344 L 326.789062 328.765625 C 331.832031 326.320312 332.902344 318.523438 330.65625 313.40625"/><path fill="#D9D9D9" d="M 305.007812 324.65625 C 302.269531 318.417969 293.128906 311.285156 289.179688 313.027344 C 284.75 314.96875 284.378906 326.269531 287.113281 332.507812 C 289.359375 337.621094 295.824219 342.117188 301.039062 340.070312 L 301.085938 340.050781 L 301.144531 340.03125 L 301.132812 340.023438 C 306.183594 337.574219 307.253906 329.769531 305.007812 324.65625"/><path fill="#D9D9D9" d="M 428.253906 418.683594 C 437.789062 410.21875 454.859375 393.769531 473.269531 401.851562 C 491.839844 409.988281 490.875 433.496094 491.105469 446.242188 C 491.316406 458.3125 480.277344 469.636719 470.074219 465.152344 C 457.117188 459.46875 458.496094 451.3125 452.601562 448.585938 C 446.617188 446.101562 441.539062 452.640625 428.589844 446.960938 C 418.386719 442.484375 419.226562 426.695312 428.253906 418.683594"/><path fill="#D9D9D9" d="M 430.484375 385.296875 C 433.21875 379.070312 442.351562 371.9375 446.3125 373.667969 C 450.738281 375.609375 451.113281 386.914062 448.375 393.148438 C 446.128906 398.273438 439.664062 402.769531 434.453125 400.710938 L 434.453125 400.722656 L 434.394531 400.691406 L 434.347656 400.675781 L 434.355469 400.675781 C 429.308594 398.226562 428.238281 390.421875 430.484375 385.296875"/><path fill="#D9D9D9" d="M 496.25 414.148438 C 498.984375 407.914062 508.125 400.777344 512.085938 402.519531 C 516.515625 404.460938 516.878906 415.765625 514.152344 421.992188 C 511.90625 427.117188 505.441406 431.613281 500.21875 429.566406 L 500.171875 429.546875 L 500.113281 429.527344 L 500.121094 429.515625 C 495.082031 427.070312 494.003906 419.265625 496.25 414.148438"/><path fill="#D9D9D9" d="M 458.042969 377.003906 C 460.78125 370.769531 469.914062 363.636719 473.871094 365.367188 C 478.300781 367.316406 478.671875 378.609375 475.9375 384.847656 C 473.691406 389.964844 467.226562 394.457031 462.011719 392.410156 L 462.011719 392.421875 L 461.957031 392.390625 L 461.910156 392.371094 C 456.867188 389.925781 455.796875 382.121094 458.042969 377.003906"/><path fill="#D9D9D9" d="M 483.691406 388.25 C 486.429688 382.015625 495.570312 374.882812 499.519531 376.621094 C 503.957031 378.5625 504.320312 389.867188 501.585938 396.09375 C 499.339844 401.21875 492.875 405.714844 487.660156 403.65625 L 487.660156 403.667969 L 487.613281 403.640625 L 487.554688 403.628906 L 487.566406 403.621094 C 482.515625 401.171875 481.445312 393.367188 483.691406 388.25"/><path fill="#D9D9D9" d="M 632.285156 355.085938 C 622.75 346.621094 605.671875 330.171875 587.261719 338.246094 C 568.691406 346.390625 569.664062 369.898438 569.4375 382.648438 C 569.214844 394.726562 580.261719 406.039062 590.464844 401.5625 C 603.421875 395.882812 602.035156 387.714844 607.925781 384.988281 C 613.921875 382.503906 618.992188 389.046875 631.949219 383.363281 C 642.152344 378.886719 641.3125 363.097656 632.285156 355.085938"/><path fill="#D9D9D9" d="M 630.046875 321.710938 C 627.320312 315.472656 618.179688 308.339844 614.230469 310.070312 C 609.792969 312.019531 609.429688 323.324219 612.164062 329.550781 C 614.410156 334.675781 620.867188 339.171875 626.089844 337.117188 L 626.089844 337.125 L 626.183594 337.085938 L 626.183594 337.078125 C 631.234375 334.628906 632.292969 326.824219 630.046875 321.710938"/><path fill="#D9D9D9" d="M 564.28125 350.550781 C 561.546875 344.316406 552.414062 337.191406 548.453125 338.921875 C 544.027344 340.863281 543.652344 352.167969 546.390625 358.402344 C 548.636719 363.519531 555.101562 368.015625 560.3125 365.96875 L 560.371094 365.949219 L 560.417969 365.929688 L 560.417969 365.921875 C 565.457031 363.472656 566.527344 355.679688 564.28125 350.550781"/><path fill="#D9D9D9" d="M 602.496094 313.40625 C 599.761719 307.171875 590.617188 300.039062 586.667969 301.769531 C 582.230469 303.71875 581.867188 315.015625 584.601562 321.25 C 586.851562 326.375 593.316406 330.871094 598.527344 328.816406 L 598.527344 328.824219 L 598.574219 328.796875 L 598.632812 328.777344 L 598.621094 328.765625 C 603.664062 326.320312 604.742188 318.523438 602.496094 313.40625"/><path fill="#D9D9D9" d="M 576.835938 324.65625 C 574.113281 318.417969 564.96875 311.285156 561.011719 313.027344 C 556.582031 314.96875 556.21875 326.269531 558.945312 332.507812 C 561.191406 337.621094 567.65625 342.117188 572.878906 340.070312 L 572.972656 340.03125 L 572.972656 340.023438 C 578.015625 337.574219 579.085938 329.769531 576.835938 324.65625"/><path fill="#D9D9D9" d="M 700.097656 418.683594 C 709.632812 410.21875 726.703125 393.769531 745.109375 401.851562 C 763.683594 409.988281 762.707031 433.496094 762.9375 446.242188 C 763.15625 458.3125 752.109375 469.636719 741.90625 465.152344 C 728.957031 459.46875 730.335938 451.3125 724.445312 448.585938 C 718.449219 446.101562 713.378906 452.640625 700.421875 446.960938 C 690.226562 442.484375 691.058594 426.695312 700.097656 418.683594"/><path fill="#D9D9D9" d="M 702.324219 385.296875 C 705.050781 379.070312 714.191406 371.9375 718.152344 373.667969 C 722.578125 375.609375 722.941406 386.914062 720.21875 393.148438 C 717.96875 398.273438 711.503906 402.769531 706.285156 400.710938 L 706.285156 400.722656 L 706.238281 400.691406 L 706.1875 400.675781 C 701.148438 398.226562 700.078125 390.421875 702.324219 385.296875"/><path fill="#D9D9D9" d="M 768.089844 414.148438 C 770.824219 407.914062 779.96875 400.777344 783.917969 402.519531 C 788.355469 404.460938 788.71875 415.765625 785.984375 421.992188 C 783.734375 427.117188 777.269531 431.613281 772.058594 429.566406 L 772.011719 429.546875 L 771.953125 429.527344 L 771.953125 429.515625 C 766.914062 427.070312 765.84375 419.265625 768.089844 414.148438"/><path fill="#D9D9D9" d="M 729.886719 377.003906 C 732.613281 370.769531 741.753906 363.636719 745.714844 365.367188 C 750.140625 367.316406 750.503906 378.609375 747.769531 384.847656 C 745.53125 389.964844 739.066406 394.457031 733.84375 392.410156 L 733.84375 392.421875 L 733.796875 392.390625 L 733.75 392.371094 C 728.710938 389.925781 727.640625 382.121094 729.886719 377.003906"/><path fill="#D9D9D9" d="M 755.535156 388.25 C 758.269531 382.015625 767.402344 374.882812 771.363281 376.621094 C 775.789062 378.5625 776.160156 389.867188 773.425781 396.09375 C 771.179688 401.21875 764.714844 405.714844 759.492188 403.65625 L 759.492188 403.667969 L 759.445312 403.640625 L 759.398438 403.628906 L 759.398438 403.621094 C 754.359375 401.171875 753.285156 393.367188 755.535156 388.25"/><path fill="#D9D9D9" d="M 904.117188 355.085938 C 894.582031 346.621094 877.511719 330.171875 859.101562 338.246094 C 840.53125 346.390625 841.507812 369.898438 841.277344 382.648438 C 841.058594 394.726562 852.101562 406.039062 862.304688 401.5625 C 875.253906 395.882812 873.878906 387.714844 879.769531 384.988281 C 885.765625 382.503906 890.832031 389.046875 903.792969 383.363281 C 913.984375 378.886719 913.144531 363.097656 904.117188 355.085938"/><path fill="#D9D9D9" d="M 901.886719 321.710938 C 899.152344 315.472656 890.019531 308.339844 886.0625 310.070312 C 881.632812 312.019531 881.269531 323.324219 883.996094 329.550781 C 886.242188 334.675781 892.707031 339.171875 897.917969 337.117188 L 897.929688 337.125 L 898.023438 337.085938 L 898.023438 337.078125 C 903.066406 334.628906 904.136719 326.824219 901.886719 321.710938"/><path fill="#D9D9D9" d="M 836.121094 350.550781 C 833.386719 344.316406 824.246094 337.191406 820.296875 338.921875 C 815.867188 340.863281 815.496094 352.167969 818.230469 358.402344 C 820.476562 363.519531 826.933594 368.015625 832.152344 365.96875 L 832.203125 365.949219 L 832.257812 365.929688 L 832.25 365.921875 C 837.300781 363.472656 838.371094 355.679688 836.121094 350.550781"/><path fill="#D9D9D9" d="M 874.328125 313.40625 C 871.59375 307.171875 862.460938 300.039062 858.5 301.769531 C 854.074219 303.71875 853.710938 315.015625 856.433594 321.25 C 858.683594 326.375 865.148438 330.871094 870.367188 328.816406 L 870.367188 328.824219 L 870.417969 328.796875 L 870.464844 328.777344 L 870.464844 328.765625 C 875.503906 326.320312 876.574219 318.523438 874.328125 313.40625"/><path fill="#D9D9D9" d="M 848.679688 324.65625 C 845.945312 318.417969 836.8125 311.285156 832.851562 313.027344 C 828.425781 314.96875 828.050781 326.269531 830.785156 332.507812 C 833.035156 337.621094 839.5 342.117188 844.710938 340.070312 L 844.769531 340.050781 L 844.816406 340.03125 L 844.816406 340.023438 C 849.855469 337.574219 850.925781 329.769531 848.679688 324.65625"/><g clip-path="url(#f)"><path fill="#D9D9D9" d="M 971.929688 418.683594 C 981.464844 410.21875 998.535156 393.769531 1016.953125 401.851562 C 1035.523438 409.988281 1034.546875 433.496094 1034.777344 446.242188 C 1034.996094 458.3125 1023.953125 469.636719 1013.75 465.152344 C 1000.800781 459.46875 1002.175781 451.3125 996.285156 448.585938 C 990.289062 446.101562 985.222656 452.640625 972.261719 446.960938 C 962.058594 442.484375 962.902344 426.695312 971.929688 418.683594"/></g><g clip-path="url(#g)"><path fill="#D9D9D9" d="M 974.15625 385.296875 C 976.890625 379.070312 986.035156 371.9375 989.984375 373.667969 C 994.421875 375.609375 994.785156 386.914062 992.050781 393.148438 C 989.800781 398.273438 983.335938 402.769531 978.125 400.710938 L 978.125 400.722656 L 978.078125 400.691406 L 978.019531 400.675781 L 978.03125 400.675781 C 972.988281 398.226562 971.910156 390.421875 974.15625 385.296875"/></g><path fill="#D9D9D9" d="M 88.613281 519.929688 C 79.066406 511.464844 61.996094 495.027344 43.589844 503.097656 C 25.015625 511.246094 25.992188 534.742188 25.761719 547.492188 C 25.542969 559.570312 36.589844 570.882812 46.78125 566.40625 C 59.742188 560.726562 58.363281 552.558594 64.253906 549.835938 C 70.25 547.347656 75.320312 553.890625 88.269531 548.207031 C 98.472656 543.734375 97.628906 527.953125 88.613281 519.929688"/><path fill="#D9D9D9" d="M 86.375 486.554688 C 83.640625 480.316406 74.507812 473.183594 70.546875 474.925781 C 66.121094 476.867188 65.746094 488.167969 68.480469 494.394531 C 70.730469 499.519531 77.195312 504.015625 82.40625 501.96875 L 82.414062 501.96875 L 82.511719 501.929688 L 82.511719 501.921875 C 87.550781 499.472656 88.621094 491.667969 86.375 486.554688"/><path fill="#D9D9D9" d="M 20.609375 515.394531 C 17.875 509.171875 8.730469 502.035156 4.78125 503.765625 C 0.355469 505.707031 -0.0195312 517.011719 2.714844 523.246094 C 4.964844 528.375 11.429688 532.859375 16.640625 530.8125 L 16.640625 530.820312 L 16.6875 530.792969 L 16.746094 530.773438 L 16.734375 530.765625 C 21.785156 528.316406 22.855469 520.523438 20.609375 515.394531"/><path fill="#D9D9D9" d="M 58.824219 478.253906 C 56.085938 472.015625 46.945312 464.882812 42.984375 466.625 C 38.558594 468.566406 38.195312 479.859375 40.929688 486.09375 C 43.167969 491.21875 49.632812 495.714844 54.855469 493.667969 L 54.902344 493.640625 L 54.949219 493.621094 C 59.988281 491.164062 61.058594 483.367188 58.824219 478.253906"/><path fill="#D9D9D9" d="M 33.164062 489.5 C 30.429688 483.261719 21.296875 476.140625 17.339844 477.871094 C 12.910156 479.8125 12.539062 491.113281 15.273438 497.351562 C 17.519531 502.464844 23.984375 506.960938 29.195312 504.914062 L 29.253906 504.894531 L 29.300781 504.875 L 29.300781 504.867188 C 34.339844 502.417969 35.414062 494.625 33.164062 489.5"/><path fill="#D9D9D9" d="M 156.414062 583.527344 C 165.949219 575.0625 183.027344 558.613281 201.4375 566.695312 C 220.007812 574.832031 219.035156 598.347656 219.261719 611.097656 C 219.484375 623.167969 208.4375 634.480469 198.234375 630.003906 C 185.277344 624.324219 186.664062 616.15625 180.773438 613.441406 C 174.777344 610.945312 169.707031 617.484375 156.75 611.804688 C 146.546875 607.328125 147.386719 591.539062 156.414062 583.527344"/><path fill="#D9D9D9" d="M 158.644531 550.148438 C 161.378906 543.914062 170.519531 536.78125 174.46875 538.519531 C 178.90625 540.460938 179.269531 551.765625 176.535156 557.992188 C 174.289062 563.117188 167.832031 567.613281 162.609375 565.554688 L 162.609375 565.566406 L 162.515625 565.527344 L 162.515625 565.519531 C 157.476562 563.070312 156.40625 555.277344 158.644531 550.148438"/><path fill="#D9D9D9" d="M 224.417969 578.992188 C 227.152344 572.765625 236.285156 565.632812 240.246094 567.363281 C 244.671875 569.304688 245.046875 580.609375 242.308594 586.84375 C 240.0625 591.960938 233.597656 596.457031 228.386719 594.410156 L 228.375 594.410156 L 228.28125 594.371094 C 223.242188 591.914062 222.171875 584.117188 224.417969 578.992188"/><path fill="#D9D9D9" d="M 186.203125 541.847656 C 188.9375 535.613281 198.082031 528.480469 202.03125 530.21875 C 206.46875 532.160156 206.832031 543.464844 204.097656 549.699219 C 201.847656 554.816406 195.382812 559.3125 190.171875 557.253906 L 190.171875 557.265625 L 190.125 557.246094 L 190.066406 557.21875 L 190.078125 557.21875 C 185.035156 554.769531 183.957031 546.964844 186.203125 541.847656"/><path fill="#D9D9D9" d="M 211.851562 553.09375 C 214.585938 546.859375 223.730469 539.726562 227.6875 541.464844 C 232.117188 543.40625 232.480469 554.710938 229.746094 560.945312 C 227.507812 566.0625 221.042969 570.558594 215.820312 568.511719 L 215.773438 568.492188 L 215.714844 568.472656 L 215.726562 568.464844 C 210.683594 566.015625 209.613281 558.222656 211.851562 553.09375"/><path fill="#D9D9D9" d="M 360.445312 519.929688 C 350.910156 511.464844 333.839844 495.027344 315.429688 503.097656 C 296.859375 511.246094 297.824219 534.742188 297.59375 547.492188 C 297.382812 559.570312 308.421875 570.882812 318.625 566.40625 C 331.582031 560.726562 330.203125 552.558594 336.097656 549.835938 C 342.082031 547.347656 347.160156 553.890625 360.109375 548.207031 C 370.3125 543.734375 369.472656 527.953125 360.445312 519.929688"/><path fill="#D9D9D9" d="M 358.214844 486.554688 C 355.480469 480.316406 346.347656 473.183594 342.386719 474.925781 C 337.960938 476.867188 337.585938 488.167969 340.324219 494.394531 C 342.570312 499.519531 349.035156 504.015625 354.246094 501.96875 L 354.304688 501.949219 L 354.351562 501.929688 L 354.34375 501.921875 C 359.390625 499.472656 360.460938 491.667969 358.214844 486.554688"/><path fill="#D9D9D9" d="M 292.441406 515.394531 C 289.714844 509.171875 280.574219 502.035156 276.613281 503.765625 C 272.183594 505.707031 271.820312 517.011719 274.546875 523.246094 C 276.796875 528.375 283.257812 532.859375 288.480469 530.8125 L 288.480469 530.820312 L 288.527344 530.792969 L 288.578125 530.773438 L 288.578125 530.765625 C 293.617188 528.316406 294.6875 520.523438 292.441406 515.394531"/><path fill="#D9D9D9" d="M 330.65625 478.253906 C 327.917969 472.015625 318.785156 464.882812 314.828125 466.625 C 310.398438 468.566406 310.027344 479.859375 312.761719 486.09375 C 315.007812 491.21875 321.472656 495.714844 326.6875 493.667969 L 326.742188 493.640625 L 326.789062 493.621094 C 331.832031 491.164062 332.902344 483.367188 330.65625 478.253906"/><path fill="#D9D9D9" d="M 305.007812 489.5 C 302.269531 483.261719 293.128906 476.140625 289.179688 477.871094 C 284.75 479.8125 284.378906 491.113281 287.113281 497.351562 C 289.359375 502.464844 295.824219 506.960938 301.039062 504.914062 L 301.085938 504.894531 L 301.144531 504.875 L 301.132812 504.867188 C 306.183594 502.417969 307.253906 494.625 305.007812 489.5"/><path fill="#D9D9D9" d="M 428.253906 583.527344 C 437.789062 575.0625 454.859375 558.613281 473.269531 566.695312 C 491.839844 574.832031 490.875 598.347656 491.105469 611.097656 C 491.316406 623.167969 480.277344 634.480469 470.074219 630.003906 C 457.117188 624.324219 458.496094 616.15625 452.601562 613.441406 C 446.617188 610.945312 441.539062 617.484375 428.589844 611.804688 C 418.386719 607.328125 419.226562 591.539062 428.253906 583.527344"/><path fill="#D9D9D9" d="M 430.484375 550.148438 C 433.21875 543.914062 442.351562 536.78125 446.3125 538.519531 C 450.738281 540.460938 451.113281 551.765625 448.375 557.992188 C 446.128906 563.117188 439.664062 567.613281 434.453125 565.554688 L 434.453125 565.566406 L 434.394531 565.546875 L 434.347656 565.527344 L 434.355469 565.519531 C 429.308594 563.070312 428.238281 555.277344 430.484375 550.148438"/><path fill="#D9D9D9" d="M 496.25 578.992188 C 498.984375 572.765625 508.125 565.632812 512.085938 567.363281 C 516.515625 569.304688 516.878906 580.609375 514.152344 586.84375 C 511.90625 591.960938 505.441406 596.457031 500.21875 594.410156 L 500.171875 594.390625 L 500.113281 594.371094 L 500.121094 594.371094 C 495.082031 591.914062 494.003906 584.117188 496.25 578.992188"/><path fill="#D9D9D9" d="M 458.042969 541.847656 C 460.78125 535.613281 469.914062 528.480469 473.871094 530.21875 C 478.300781 532.160156 478.671875 543.464844 475.9375 549.699219 C 473.691406 554.816406 467.226562 559.3125 462.011719 557.253906 L 462.011719 557.265625 L 461.957031 557.246094 L 461.910156 557.21875 C 456.867188 554.769531 455.796875 546.964844 458.042969 541.847656"/><path fill="#D9D9D9" d="M 483.691406 553.09375 C 486.429688 546.859375 495.570312 539.726562 499.519531 541.464844 C 503.957031 543.40625 504.320312 554.710938 501.585938 560.945312 C 499.339844 566.0625 492.875 570.558594 487.660156 568.511719 L 487.613281 568.492188 L 487.554688 568.472656 L 487.566406 568.464844 C 482.515625 566.015625 481.445312 558.222656 483.691406 553.09375"/><path fill="#D9D9D9" d="M 632.285156 519.929688 C 622.75 511.464844 605.671875 495.027344 587.261719 503.097656 C 568.691406 511.246094 569.664062 534.742188 569.4375 547.492188 C 569.214844 559.570312 580.261719 570.882812 590.464844 566.40625 C 603.421875 560.726562 602.035156 552.558594 607.925781 549.835938 C 613.921875 547.347656 618.992188 553.890625 631.949219 548.207031 C 642.152344 543.734375 641.3125 527.953125 632.285156 519.929688"/><path fill="#D9D9D9" d="M 630.046875 486.554688 C 627.320312 480.316406 618.179688 473.183594 614.230469 474.925781 C 609.792969 476.867188 609.429688 488.167969 612.164062 494.394531 C 614.410156 499.519531 620.867188 504.015625 626.089844 501.96875 L 626.183594 501.929688 L 626.183594 501.921875 C 631.234375 499.472656 632.292969 491.667969 630.046875 486.554688"/><path fill="#D9D9D9" d="M 564.28125 515.394531 C 561.546875 509.171875 552.414062 502.035156 548.453125 503.765625 C 544.027344 505.707031 543.652344 517.011719 546.390625 523.246094 C 548.636719 528.375 555.101562 532.859375 560.3125 530.8125 L 560.3125 530.820312 L 560.371094 530.792969 L 560.417969 530.773438 L 560.417969 530.765625 C 565.457031 528.316406 566.527344 520.523438 564.28125 515.394531"/><path fill="#D9D9D9" d="M 602.496094 478.253906 C 599.761719 472.015625 590.617188 464.882812 586.667969 466.625 C 582.230469 468.566406 581.867188 479.859375 584.601562 486.09375 C 586.851562 491.21875 593.316406 495.714844 598.527344 493.667969 L 598.574219 493.640625 L 598.632812 493.621094 L 598.621094 493.621094 C 603.664062 491.164062 604.742188 483.367188 602.496094 478.253906"/><path fill="#D9D9D9" d="M 576.835938 489.5 C 574.113281 483.261719 564.96875 476.140625 561.011719 477.871094 C 556.582031 479.8125 556.21875 491.113281 558.945312 497.351562 C 561.191406 502.464844 567.65625 506.960938 572.878906 504.914062 L 572.972656 504.875 L 572.972656 504.867188 C 578.015625 502.417969 579.085938 494.625 576.835938 489.5"/><path fill="#D9D9D9" d="M 700.097656 583.527344 C 709.632812 575.0625 726.703125 558.613281 745.109375 566.695312 C 763.683594 574.832031 762.707031 598.347656 762.9375 611.097656 C 763.15625 623.167969 752.109375 634.480469 741.90625 630.003906 C 728.957031 624.324219 730.335938 616.15625 724.445312 613.441406 C 718.449219 610.945312 713.378906 617.484375 700.421875 611.804688 C 690.226562 607.328125 691.058594 591.539062 700.097656 583.527344"/><path fill="#D9D9D9" d="M 702.324219 550.148438 C 705.050781 543.914062 714.191406 536.78125 718.152344 538.519531 C 722.578125 540.460938 722.941406 551.765625 720.21875 557.992188 C 717.96875 563.117188 711.503906 567.613281 706.285156 565.554688 L 706.285156 565.566406 L 706.1875 565.527344 L 706.1875 565.519531 C 701.148438 563.070312 700.078125 555.277344 702.324219 550.148438"/><path fill="#D9D9D9" d="M 768.089844 578.992188 C 770.824219 572.765625 779.96875 565.632812 783.917969 567.363281 C 788.355469 569.304688 788.71875 580.609375 785.984375 586.84375 C 783.734375 591.960938 777.269531 596.457031 772.058594 594.410156 L 772.011719 594.390625 L 771.953125 594.371094 C 766.914062 591.914062 765.84375 584.117188 768.089844 578.992188"/><path fill="#D9D9D9" d="M 729.886719 541.847656 C 732.613281 535.613281 741.753906 528.480469 745.714844 530.21875 C 750.140625 532.160156 750.503906 543.464844 747.769531 549.699219 C 745.53125 554.816406 739.066406 559.3125 733.84375 557.253906 L 733.84375 557.265625 L 733.796875 557.246094 L 733.75 557.21875 C 728.710938 554.769531 727.640625 546.964844 729.886719 541.847656"/><path fill="#D9D9D9" d="M 755.535156 553.09375 C 758.269531 546.859375 767.402344 539.726562 771.363281 541.464844 C 775.789062 543.40625 776.160156 554.710938 773.425781 560.945312 C 771.179688 566.0625 764.714844 570.558594 759.492188 568.511719 L 759.398438 568.472656 L 759.398438 568.464844 C 754.359375 566.015625 753.285156 558.222656 755.535156 553.09375"/><path fill="#D9D9D9" d="M 904.117188 519.929688 C 894.582031 511.464844 877.511719 495.027344 859.101562 503.097656 C 840.53125 511.246094 841.507812 534.742188 841.277344 547.492188 C 841.058594 559.570312 852.101562 570.882812 862.304688 566.40625 C 875.253906 560.726562 873.878906 552.558594 879.769531 549.835938 C 885.765625 547.347656 890.832031 553.890625 903.792969 548.207031 C 913.984375 543.734375 913.144531 527.953125 904.117188 519.929688"/><path fill="#D9D9D9" d="M 901.886719 486.554688 C 899.152344 480.316406 890.019531 473.183594 886.0625 474.925781 C 881.632812 476.867188 881.269531 488.167969 883.996094 494.394531 C 886.242188 499.519531 892.707031 504.015625 897.917969 501.96875 L 897.929688 501.96875 L 898.023438 501.929688 L 898.023438 501.921875 C 903.066406 499.472656 904.136719 491.667969 901.886719 486.554688"/><path fill="#D9D9D9" d="M 836.121094 515.394531 C 833.386719 509.171875 824.246094 502.035156 820.296875 503.765625 C 815.867188 505.707031 815.496094 517.011719 818.230469 523.246094 C 820.476562 528.375 826.933594 532.859375 832.152344 530.8125 L 832.152344 530.820312 L 832.203125 530.792969 L 832.257812 530.773438 L 832.25 530.765625 C 837.300781 528.316406 838.371094 520.523438 836.121094 515.394531"/><path fill="#D9D9D9" d="M 874.328125 478.253906 C 871.59375 472.015625 862.460938 464.882812 858.5 466.625 C 854.074219 468.566406 853.710938 479.859375 856.433594 486.09375 C 858.683594 491.21875 865.148438 495.714844 870.367188 493.667969 L 870.417969 493.640625 L 870.464844 493.621094 C 875.503906 491.164062 876.574219 483.367188 874.328125 478.253906"/><path fill="#D9D9D9" d="M 848.679688 489.5 C 845.945312 483.261719 836.8125 476.140625 832.851562 477.871094 C 828.425781 479.8125 828.050781 491.113281 830.785156 497.351562 C 833.035156 502.464844 839.5 506.960938 844.710938 504.914062 L 844.769531 504.894531 L 844.816406 504.875 L 844.816406 504.867188 C 849.855469 502.417969 850.925781 494.625 848.679688 489.5"/><g clip-path="url(#h)"><path fill="#D9D9D9" d="M 971.929688 583.527344 C 981.464844 575.0625 998.535156 558.613281 1016.953125 566.695312 C 1035.523438 574.832031 1034.546875 598.347656 1034.777344 611.097656 C 1034.996094 623.167969 1023.953125 634.480469 1013.75 630.003906 C 1000.800781 624.324219 1002.175781 616.15625 996.285156 613.441406 C 990.289062 610.945312 985.222656 617.484375 972.261719 611.804688 C 962.058594 607.328125 962.902344 591.539062 971.929688 583.527344"/></g><g clip-path="url(#i)"><path fill="#D9D9D9" d="M 974.15625 550.148438 C 976.890625 543.914062 986.035156 536.78125 989.984375 538.519531 C 994.421875 540.460938 994.785156 551.765625 992.050781 557.992188 C 989.800781 563.117188 983.335938 567.613281 978.125 565.554688 L 978.125 565.566406 L 978.078125 565.546875 L 978.019531 565.527344 L 978.03125 565.519531 C 972.988281 563.070312 971.910156 555.277344 974.15625 550.148438"/></g><path fill="#D9D9D9" d="M 88.613281 684.773438 C 79.066406 676.308594 61.996094 659.871094 43.589844 667.941406 C 25.015625 676.089844 25.992188 699.597656 25.761719 712.34375 C 25.542969 724.414062 36.589844 735.726562 46.78125 731.25 C 59.742188 725.570312 58.363281 717.402344 64.253906 714.6875 C 70.25 712.191406 75.320312 718.742188 88.269531 713.050781 C 98.472656 708.578125 97.628906 692.796875 88.613281 684.773438"/><path fill="#D9D9D9" d="M 86.375 651.398438 C 83.640625 645.171875 74.507812 638.039062 70.546875 639.769531 C 66.121094 641.710938 65.746094 653.011719 68.480469 659.25 C 70.730469 664.363281 77.195312 668.859375 82.40625 666.8125 L 82.414062 666.8125 L 82.511719 666.773438 L 82.511719 666.765625 C 87.550781 664.316406 88.621094 656.523438 86.375 651.398438"/><path fill="#D9D9D9" d="M 20.609375 680.242188 C 17.875 674.015625 8.730469 666.878906 4.78125 668.613281 C 0.355469 670.5625 -0.0195312 681.867188 2.714844 688.09375 C 4.964844 693.21875 11.429688 697.710938 16.640625 695.65625 L 16.640625 695.667969 L 16.6875 695.636719 L 16.746094 695.617188 L 16.734375 695.617188 C 21.785156 693.160156 22.855469 685.367188 20.609375 680.242188"/><path fill="#D9D9D9" d="M 58.824219 643.097656 C 56.085938 636.859375 46.945312 629.734375 42.984375 631.46875 C 38.558594 633.410156 38.195312 644.710938 40.929688 650.9375 C 43.167969 656.0625 49.632812 660.558594 54.855469 658.511719 L 54.902344 658.492188 L 54.949219 658.464844 C 59.988281 656.015625 61.058594 648.222656 58.824219 643.097656"/><path fill="#D9D9D9" d="M 33.164062 654.351562 C 30.429688 648.117188 21.296875 640.984375 17.339844 642.714844 C 12.910156 644.664062 12.539062 655.960938 15.273438 662.195312 C 17.519531 667.320312 23.984375 671.804688 29.195312 669.757812 L 29.195312 669.769531 L 29.253906 669.738281 L 29.300781 669.722656 L 29.300781 669.710938 C 34.339844 667.261719 35.414062 659.46875 33.164062 654.351562"/><path fill="#D9D9D9" d="M 156.414062 748.378906 C 165.949219 739.90625 183.027344 723.46875 201.4375 731.539062 C 220.007812 739.6875 219.035156 763.191406 219.261719 775.941406 C 219.484375 788.011719 208.4375 799.324219 198.234375 794.847656 C 185.277344 789.167969 186.664062 781 180.773438 778.285156 C 174.777344 775.789062 169.707031 782.328125 156.75 776.660156 C 146.546875 772.183594 147.386719 756.394531 156.414062 748.378906"/><path fill="#D9D9D9" d="M 158.644531 714.992188 C 161.378906 708.757812 170.519531 701.625 174.46875 703.363281 C 178.90625 705.304688 179.269531 716.609375 176.535156 722.835938 C 174.289062 727.960938 167.832031 732.457031 162.609375 730.410156 L 162.609375 730.417969 L 162.5625 730.390625 L 162.515625 730.371094 L 162.515625 730.363281 C 157.476562 727.914062 156.40625 720.121094 158.644531 714.992188"/><path fill="#D9D9D9" d="M 224.417969 743.835938 C 227.152344 737.609375 236.285156 730.476562 240.246094 732.207031 C 244.671875 734.148438 245.046875 745.460938 242.308594 751.6875 C 240.0625 756.816406 233.597656 761.300781 228.386719 759.253906 L 228.375 759.261719 L 228.328125 759.234375 L 228.28125 759.214844 C 223.242188 756.765625 222.171875 748.964844 224.417969 743.835938"/><path fill="#D9D9D9" d="M 186.203125 706.691406 C 188.9375 700.457031 198.082031 693.332031 202.03125 695.0625 C 206.46875 697.003906 206.832031 708.308594 204.097656 714.542969 C 201.847656 719.660156 195.382812 724.15625 190.171875 722.109375 L 190.125 722.089844 L 190.066406 722.070312 L 190.078125 722.0625 C 185.035156 719.613281 183.957031 711.808594 186.203125 706.691406"/><path fill="#D9D9D9" d="M 211.851562 717.9375 C 214.585938 711.703125 223.730469 704.578125 227.6875 706.308594 C 232.117188 708.25 232.480469 719.554688 229.746094 725.789062 C 227.507812 730.90625 221.042969 735.402344 215.820312 733.355469 L 215.773438 733.335938 L 215.714844 733.316406 L 215.726562 733.316406 C 210.683594 730.859375 209.613281 723.066406 211.851562 717.9375"/><path fill="#D9D9D9" d="M 360.445312 684.773438 C 350.910156 676.308594 333.839844 659.871094 315.429688 667.941406 C 296.859375 676.089844 297.824219 699.597656 297.59375 712.34375 C 297.382812 724.414062 308.421875 735.726562 318.625 731.25 C 331.582031 725.570312 330.203125 717.402344 336.097656 714.6875 C 342.082031 712.191406 347.160156 718.742188 360.109375 713.050781 C 370.3125 708.578125 369.472656 692.796875 360.445312 684.773438"/><path fill="#D9D9D9" d="M 358.214844 651.398438 C 355.480469 645.171875 346.347656 638.039062 342.386719 639.769531 C 337.960938 641.710938 337.585938 653.011719 340.324219 659.25 C 342.570312 664.363281 349.035156 668.859375 354.246094 666.8125 L 354.304688 666.792969 L 354.351562 666.773438 L 354.34375 666.765625 C 359.390625 664.316406 360.460938 656.523438 358.214844 651.398438"/><path fill="#D9D9D9" d="M 292.441406 680.242188 C 289.714844 674.015625 280.574219 666.878906 276.613281 668.613281 C 272.183594 670.5625 271.820312 681.867188 274.546875 688.09375 C 276.796875 693.21875 283.257812 697.710938 288.480469 695.65625 L 288.480469 695.667969 L 288.527344 695.636719 L 288.578125 695.617188 C 293.617188 693.160156 294.6875 685.367188 292.441406 680.242188"/><path fill="#D9D9D9" d="M 330.65625 643.097656 C 327.917969 636.859375 318.785156 629.734375 314.828125 631.46875 C 310.398438 633.410156 310.027344 644.710938 312.761719 650.9375 C 315.007812 656.0625 321.472656 660.558594 326.6875 658.511719 L 326.742188 658.492188 L 326.789062 658.464844 C 331.832031 656.015625 332.902344 648.222656 330.65625 643.097656"/><path fill="#D9D9D9" d="M 305.007812 654.351562 C 302.269531 648.117188 293.128906 640.984375 289.179688 642.714844 C 284.75 644.664062 284.378906 655.960938 287.113281 662.195312 C 289.359375 667.320312 295.824219 671.804688 301.039062 669.757812 L 301.039062 669.769531 L 301.085938 669.738281 L 301.144531 669.722656 L 301.132812 669.710938 C 306.183594 667.261719 307.253906 659.46875 305.007812 654.351562"/><path fill="#D9D9D9" d="M 428.253906 748.378906 C 437.789062 739.90625 454.859375 723.46875 473.269531 731.539062 C 491.839844 739.6875 490.875 763.191406 491.105469 775.941406 C 491.316406 788.011719 480.277344 799.324219 470.074219 794.847656 C 457.117188 789.167969 458.496094 781 452.601562 778.285156 C 446.617188 775.789062 441.539062 782.328125 428.589844 776.660156 C 418.386719 772.183594 419.226562 756.394531 428.253906 748.378906"/><path fill="#D9D9D9" d="M 430.484375 714.992188 C 433.21875 708.757812 442.351562 701.625 446.3125 703.363281 C 450.738281 705.304688 451.113281 716.609375 448.375 722.835938 C 446.128906 727.960938 439.664062 732.457031 434.453125 730.410156 L 434.453125 730.417969 L 434.394531 730.390625 L 434.347656 730.371094 L 434.355469 730.363281 C 429.308594 727.914062 428.238281 720.121094 430.484375 714.992188"/><path fill="#D9D9D9" d="M 496.25 743.835938 C 498.984375 737.609375 508.125 730.476562 512.085938 732.207031 C 516.515625 734.148438 516.878906 745.460938 514.152344 751.6875 C 511.90625 756.816406 505.441406 761.300781 500.21875 759.253906 L 500.21875 759.261719 L 500.171875 759.234375 L 500.113281 759.214844 L 500.121094 759.214844 C 495.082031 756.765625 494.003906 748.964844 496.25 743.835938"/><path fill="#D9D9D9" d="M 458.042969 706.691406 C 460.78125 700.457031 469.914062 693.332031 473.871094 695.0625 C 478.300781 697.003906 478.671875 708.308594 475.9375 714.542969 C 473.691406 719.660156 467.226562 724.15625 462.011719 722.109375 L 461.957031 722.089844 L 461.910156 722.070312 L 461.910156 722.0625 C 456.867188 719.613281 455.796875 711.808594 458.042969 706.691406"/><path fill="#D9D9D9" d="M 483.691406 717.9375 C 486.429688 711.703125 495.570312 704.578125 499.519531 706.308594 C 503.957031 708.25 504.320312 719.554688 501.585938 725.789062 C 499.339844 730.90625 492.875 735.402344 487.660156 733.355469 L 487.613281 733.335938 L 487.554688 733.316406 L 487.566406 733.316406 C 482.515625 730.859375 481.445312 723.066406 483.691406 717.9375"/><path fill="#D9D9D9" d="M 632.285156 684.773438 C 622.75 676.308594 605.671875 659.871094 587.261719 667.941406 C 568.691406 676.089844 569.664062 699.597656 569.4375 712.34375 C 569.214844 724.414062 580.261719 735.726562 590.464844 731.25 C 603.421875 725.570312 602.035156 717.402344 607.925781 714.6875 C 613.921875 712.191406 618.992188 718.742188 631.949219 713.050781 C 642.152344 708.578125 641.3125 692.796875 632.285156 684.773438"/><path fill="#D9D9D9" d="M 630.046875 651.398438 C 627.320312 645.171875 618.179688 638.039062 614.230469 639.769531 C 609.792969 641.710938 609.429688 653.011719 612.164062 659.25 C 614.410156 664.363281 620.867188 668.859375 626.089844 666.8125 L 626.183594 666.773438 L 626.183594 666.765625 C 631.234375 664.316406 632.292969 656.523438 630.046875 651.398438"/><path fill="#D9D9D9" d="M 564.28125 680.242188 C 561.546875 674.015625 552.414062 666.878906 548.453125 668.613281 C 544.027344 670.5625 543.652344 681.867188 546.390625 688.09375 C 548.636719 693.21875 555.101562 697.710938 560.3125 695.65625 L 560.3125 695.667969 L 560.371094 695.636719 L 560.417969 695.617188 C 565.457031 693.160156 566.527344 685.367188 564.28125 680.242188"/><path fill="#D9D9D9" d="M 602.496094 643.097656 C 599.761719 636.859375 590.617188 629.734375 586.667969 631.46875 C 582.230469 633.410156 581.867188 644.710938 584.601562 650.9375 C 586.851562 656.0625 593.316406 660.558594 598.527344 658.511719 L 598.574219 658.492188 L 598.632812 658.464844 L 598.621094 658.464844 C 603.664062 656.015625 604.742188 648.222656 602.496094 643.097656"/><path fill="#D9D9D9" d="M 576.835938 654.351562 C 574.113281 648.117188 564.96875 640.984375 561.011719 642.714844 C 556.582031 644.664062 556.21875 655.960938 558.945312 662.195312 C 561.191406 667.320312 567.65625 671.804688 572.878906 669.757812 L 572.878906 669.769531 L 572.925781 669.738281 L 572.972656 669.722656 L 572.972656 669.710938 C 578.015625 667.261719 579.085938 659.46875 576.835938 654.351562"/><path fill="#D9D9D9" d="M 700.097656 748.378906 C 709.632812 739.90625 726.703125 723.46875 745.109375 731.539062 C 763.683594 739.6875 762.707031 763.191406 762.9375 775.941406 C 763.15625 788.011719 752.109375 799.324219 741.90625 794.847656 C 728.957031 789.167969 730.335938 781 724.445312 778.285156 C 718.449219 775.789062 713.378906 782.328125 700.421875 776.660156 C 690.226562 772.183594 691.058594 756.394531 700.097656 748.378906"/><path fill="#D9D9D9" d="M 702.324219 714.992188 C 705.050781 708.757812 714.191406 701.625 718.152344 703.363281 C 722.578125 705.304688 722.941406 716.609375 720.21875 722.835938 C 717.96875 727.960938 711.503906 732.457031 706.285156 730.410156 L 706.285156 730.417969 L 706.238281 730.390625 L 706.1875 730.371094 L 706.1875 730.363281 C 701.148438 727.914062 700.078125 720.121094 702.324219 714.992188"/><path fill="#D9D9D9" d="M 768.089844 743.835938 C 770.824219 737.609375 779.96875 730.476562 783.917969 732.207031 C 788.355469 734.148438 788.71875 745.460938 785.984375 751.6875 C 783.734375 756.816406 777.269531 761.300781 772.058594 759.253906 L 772.058594 759.261719 L 772.011719 759.234375 L 771.953125 759.214844 C 766.914062 756.765625 765.84375 748.964844 768.089844 743.835938"/><path fill="#D9D9D9" d="M 729.886719 706.691406 C 732.613281 700.457031 741.753906 693.332031 745.714844 695.0625 C 750.140625 697.003906 750.503906 708.308594 747.769531 714.542969 C 745.53125 719.660156 739.066406 724.15625 733.84375 722.109375 L 733.75 722.070312 L 733.75 722.0625 C 728.710938 719.613281 727.640625 711.808594 729.886719 706.691406"/><path fill="#D9D9D9" d="M 755.535156 717.9375 C 758.269531 711.703125 767.402344 704.578125 771.363281 706.308594 C 775.789062 708.25 776.160156 719.554688 773.425781 725.789062 C 771.179688 730.90625 764.714844 735.402344 759.492188 733.355469 L 759.398438 733.316406 C 754.359375 730.859375 753.285156 723.066406 755.535156 717.9375"/><path fill="#D9D9D9" d="M 904.117188 684.773438 C 894.582031 676.308594 877.511719 659.871094 859.101562 667.941406 C 840.53125 676.089844 841.507812 699.597656 841.277344 712.34375 C 841.058594 724.414062 852.101562 735.726562 862.304688 731.25 C 875.253906 725.570312 873.878906 717.402344 879.769531 714.6875 C 885.765625 712.191406 890.832031 718.742188 903.792969 713.050781 C 913.984375 708.578125 913.144531 692.796875 904.117188 684.773438"/><path fill="#D9D9D9" d="M 901.886719 651.398438 C 899.152344 645.171875 890.019531 638.039062 886.0625 639.769531 C 881.632812 641.710938 881.269531 653.011719 883.996094 659.25 C 886.242188 664.363281 892.707031 668.859375 897.917969 666.8125 L 897.929688 666.8125 L 898.023438 666.773438 L 898.023438 666.765625 C 903.066406 664.316406 904.136719 656.523438 901.886719 651.398438"/><path fill="#D9D9D9" d="M 836.121094 680.242188 C 833.386719 674.015625 824.246094 666.878906 820.296875 668.613281 C 815.867188 670.5625 815.496094 681.867188 818.230469 688.09375 C 820.476562 693.21875 826.933594 697.710938 832.152344 695.65625 L 832.152344 695.667969 L 832.203125 695.636719 L 832.257812 695.617188 L 832.25 695.617188 C 837.300781 693.160156 838.371094 685.367188 836.121094 680.242188"/><path fill="#D9D9D9" d="M 874.328125 643.097656 C 871.59375 636.859375 862.460938 629.734375 858.5 631.46875 C 854.074219 633.410156 853.710938 644.710938 856.433594 650.9375 C 858.683594 656.0625 865.148438 660.558594 870.367188 658.511719 L 870.417969 658.492188 L 870.464844 658.464844 C 875.503906 656.015625 876.574219 648.222656 874.328125 643.097656"/><path fill="#D9D9D9" d="M 848.679688 654.351562 C 845.945312 648.117188 836.8125 640.984375 832.851562 642.714844 C 828.425781 644.664062 828.050781 655.960938 830.785156 662.195312 C 833.035156 667.320312 839.5 671.804688 844.710938 669.757812 L 844.710938 669.769531 L 844.769531 669.738281 L 844.816406 669.722656 L 844.816406 669.710938 C 849.855469 667.261719 850.925781 659.46875 848.679688 654.351562"/><g clip-path="url(#j)"><path fill="#D9D9D9" d="M 971.929688 748.378906 C 981.464844 739.90625 998.535156 723.46875 1016.953125 731.539062 C 1035.523438 739.6875 1034.546875 763.191406 1034.777344 775.941406 C 1034.996094 788.011719 1023.953125 799.324219 1013.75 794.847656 C 1000.800781 789.167969 1002.175781 781 996.285156 778.285156 C 990.289062 775.789062 985.222656 782.328125 972.261719 776.660156 C 962.058594 772.183594 962.902344 756.394531 971.929688 748.378906"/></g><g clip-path="url(#k)"><path fill="#D9D9D9" d="M 974.15625 714.992188 C 976.890625 708.757812 986.035156 701.625 989.984375 703.363281 C 994.421875 705.304688 994.785156 716.609375 992.050781 722.835938 C 989.800781 727.960938 983.335938 732.457031 978.125 730.410156 L 978.125 730.417969 L 978.078125 730.390625 L 978.019531 730.371094 L 978.03125 730.363281 C 972.988281 727.914062 971.910156 720.121094 974.15625 714.992188"/></g><g clip-path="url(#l)"><path fill="#D9D9D9" d="M 88.613281 849.628906 C 79.066406 841.152344 61.996094 824.714844 43.589844 832.785156 C 25.015625 840.933594 25.992188 864.441406 25.761719 877.1875 C 25.542969 889.257812 36.589844 900.570312 46.78125 896.09375 C 59.742188 890.414062 58.363281 882.257812 64.253906 879.53125 C 70.25 877.046875 75.320312 883.585938 88.269531 877.90625 C 98.472656 873.429688 97.628906 857.640625 88.613281 849.628906"/></g><path fill="#D9D9D9" d="M 86.375 816.242188 C 83.640625 810.015625 74.507812 802.882812 70.546875 804.613281 C 66.121094 806.554688 65.746094 817.859375 68.480469 824.09375 C 70.730469 829.21875 77.195312 833.703125 82.40625 831.65625 L 82.414062 831.667969 L 82.460938 831.636719 L 82.511719 831.621094 L 82.511719 831.609375 C 87.550781 829.160156 88.621094 821.367188 86.375 816.242188"/><g clip-path="url(#m)"><path fill="#D9D9D9" d="M 20.609375 845.085938 C 17.875 838.859375 8.730469 831.722656 4.78125 833.457031 C 0.355469 835.40625 -0.0195312 846.710938 2.714844 852.9375 C 4.964844 858.0625 11.429688 862.558594 16.640625 860.511719 L 16.6875 860.492188 L 16.746094 860.472656 L 16.734375 860.460938 C 21.785156 858.015625 22.855469 850.210938 20.609375 845.085938"/></g><path fill="#D9D9D9" d="M 58.824219 807.941406 C 56.085938 801.703125 46.945312 794.582031 42.984375 796.3125 C 38.558594 798.253906 38.195312 809.554688 40.929688 815.792969 C 43.167969 820.910156 49.632812 825.402344 54.855469 823.355469 L 54.855469 823.367188 L 54.902344 823.335938 L 54.949219 823.316406 L 54.949219 823.308594 C 59.988281 820.859375 61.058594 813.066406 58.824219 807.941406"/><path fill="#D9D9D9" d="M 33.164062 819.195312 C 30.429688 812.960938 21.296875 805.828125 17.339844 807.558594 C 12.910156 809.507812 12.539062 820.804688 15.273438 827.039062 C 17.519531 832.164062 23.984375 836.660156 29.195312 834.601562 L 29.195312 834.613281 L 29.253906 834.582031 L 29.300781 834.566406 C 34.339844 832.105469 35.414062 824.3125 33.164062 819.195312"/><g clip-path="url(#n)"><path fill="#D9D9D9" d="M 360.445312 849.628906 C 350.910156 841.152344 333.839844 824.714844 315.429688 832.785156 C 296.859375 840.933594 297.824219 864.441406 297.59375 877.1875 C 297.382812 889.257812 308.421875 900.570312 318.625 896.09375 C 331.582031 890.414062 330.203125 882.257812 336.097656 879.53125 C 342.082031 877.046875 347.160156 883.585938 360.109375 877.90625 C 370.3125 873.429688 369.472656 857.640625 360.445312 849.628906"/></g><path fill="#D9D9D9" d="M 358.214844 816.242188 C 355.480469 810.015625 346.347656 802.882812 342.386719 804.613281 C 337.960938 806.554688 337.585938 817.859375 340.324219 824.09375 C 342.570312 829.21875 349.035156 833.703125 354.246094 831.65625 L 354.246094 831.667969 L 354.304688 831.636719 L 354.351562 831.621094 L 354.34375 831.609375 C 359.390625 829.160156 360.460938 821.367188 358.214844 816.242188"/><g clip-path="url(#o)"><path fill="#D9D9D9" d="M 292.441406 845.085938 C 289.714844 838.859375 280.574219 831.722656 276.613281 833.457031 C 272.183594 835.40625 271.820312 846.710938 274.546875 852.9375 C 276.796875 858.0625 283.257812 862.558594 288.480469 860.511719 L 288.578125 860.472656 L 288.578125 860.460938 C 293.617188 858.015625 294.6875 850.210938 292.441406 845.085938"/></g><path fill="#D9D9D9" d="M 330.65625 807.941406 C 327.917969 801.703125 318.785156 794.582031 314.828125 796.3125 C 310.398438 798.253906 310.027344 809.554688 312.761719 815.792969 C 315.007812 820.910156 321.472656 825.402344 326.6875 823.355469 L 326.6875 823.367188 L 326.742188 823.335938 L 326.789062 823.316406 L 326.789062 823.308594 C 331.832031 820.859375 332.902344 813.066406 330.65625 807.941406"/><path fill="#D9D9D9" d="M 305.007812 819.195312 C 302.269531 812.960938 293.128906 805.828125 289.179688 807.558594 C 284.75 809.507812 284.378906 820.804688 287.113281 827.039062 C 289.359375 832.164062 295.824219 836.660156 301.039062 834.601562 L 301.039062 834.613281 L 301.085938 834.582031 L 301.144531 834.566406 L 301.132812 834.566406 C 306.183594 832.105469 307.253906 824.3125 305.007812 819.195312"/><g clip-path="url(#p)"><path fill="#D9D9D9" d="M 632.285156 849.628906 C 622.75 841.152344 605.671875 824.714844 587.261719 832.785156 C 568.691406 840.933594 569.664062 864.441406 569.4375 877.1875 C 569.214844 889.257812 580.261719 900.570312 590.464844 896.09375 C 603.421875 890.414062 602.035156 882.257812 607.925781 879.53125 C 613.921875 877.046875 618.992188 883.585938 631.949219 877.90625 C 642.152344 873.429688 641.3125 857.640625 632.285156 849.628906"/></g><path fill="#D9D9D9" d="M 630.046875 816.242188 C 627.320312 810.015625 618.179688 802.882812 614.230469 804.613281 C 609.792969 806.554688 609.429688 817.859375 612.164062 824.09375 C 614.410156 829.21875 620.867188 833.703125 626.089844 831.65625 L 626.089844 831.667969 L 626.136719 831.636719 L 626.183594 831.621094 L 626.183594 831.609375 C 631.234375 829.160156 632.292969 821.367188 630.046875 816.242188"/><g clip-path="url(#q)"><path fill="#D9D9D9" d="M 564.28125 845.085938 C 561.546875 838.859375 552.414062 831.722656 548.453125 833.457031 C 544.027344 835.40625 543.652344 846.710938 546.390625 852.9375 C 548.636719 858.0625 555.101562 862.558594 560.3125 860.511719 L 560.371094 860.492188 L 560.417969 860.472656 L 560.417969 860.460938 C 565.457031 858.015625 566.527344 850.210938 564.28125 845.085938"/></g><path fill="#D9D9D9" d="M 602.496094 807.941406 C 599.761719 801.703125 590.617188 794.582031 586.667969 796.3125 C 582.230469 798.253906 581.867188 809.554688 584.601562 815.792969 C 586.851562 820.910156 593.316406 825.402344 598.527344 823.355469 L 598.527344 823.367188 L 598.574219 823.335938 L 598.632812 823.316406 L 598.621094 823.308594 C 603.664062 820.859375 604.742188 813.066406 602.496094 807.941406"/><path fill="#D9D9D9" d="M 576.835938 819.195312 C 574.113281 812.960938 564.96875 805.828125 561.011719 807.558594 C 556.582031 809.507812 556.21875 820.804688 558.945312 827.039062 C 561.191406 832.164062 567.65625 836.660156 572.878906 834.601562 L 572.878906 834.613281 L 572.925781 834.582031 L 572.972656 834.566406 C 578.015625 832.105469 579.085938 824.3125 576.835938 819.195312"/><g clip-path="url(#r)"><path fill="#D9D9D9" d="M 904.117188 849.628906 C 894.582031 841.152344 877.511719 824.714844 859.101562 832.785156 C 840.53125 840.933594 841.507812 864.441406 841.277344 877.1875 C 841.058594 889.257812 852.101562 900.570312 862.304688 896.09375 C 875.253906 890.414062 873.878906 882.257812 879.769531 879.53125 C 885.765625 877.046875 890.832031 883.585938 903.792969 877.90625 C 913.984375 873.429688 913.144531 857.640625 904.117188 849.628906"/></g><path fill="#D9D9D9" d="M 901.886719 816.242188 C 899.152344 810.015625 890.019531 802.882812 886.0625 804.613281 C 881.632812 806.554688 881.269531 817.859375 883.996094 824.09375 C 886.242188 829.21875 892.707031 833.703125 897.917969 831.65625 L 897.929688 831.667969 L 897.976562 831.636719 L 898.023438 831.621094 L 898.023438 831.609375 C 903.066406 829.160156 904.136719 821.367188 901.886719 816.242188"/><g clip-path="url(#s)"><path fill="#D9D9D9" d="M 836.121094 845.085938 C 833.386719 838.859375 824.246094 831.722656 820.296875 833.457031 C 815.867188 835.40625 815.496094 846.710938 818.230469 852.9375 C 820.476562 858.0625 826.933594 862.558594 832.152344 860.511719 L 832.203125 860.492188 L 832.257812 860.472656 L 832.25 860.460938 C 837.300781 858.015625 838.371094 850.210938 836.121094 845.085938"/></g><path fill="#D9D9D9" d="M 874.328125 807.941406 C 871.59375 801.703125 862.460938 794.582031 858.5 796.3125 C 854.074219 798.253906 853.710938 809.554688 856.433594 815.792969 C 858.683594 820.910156 865.148438 825.402344 870.367188 823.355469 L 870.367188 823.367188 L 870.417969 823.335938 L 870.464844 823.316406 L 870.464844 823.308594 C 875.503906 820.859375 876.574219 813.066406 874.328125 807.941406"/><path fill="#D9D9D9" d="M 848.679688 819.195312 C 845.945312 812.960938 836.8125 805.828125 832.851562 807.558594 C 828.425781 809.507812 828.050781 820.804688 830.785156 827.039062 C 833.035156 832.164062 839.5 836.660156 844.710938 834.601562 L 844.710938 834.613281 L 844.769531 834.582031 L 844.816406 834.566406 C 849.855469 832.105469 850.925781 824.3125 848.679688 819.195312"/></svg>